<svg xmlns="http://www.w3.org/2000/svg" viewBox="0 0 512 320" width="512" height="320" fill="none"><defs>
    <linearGradient id="g" x1="0" y1="0" x2="1" y2="1"><stop offset="0" stop-color="#a855ff"/><stop offset="1" stop-color="#5b7cff"/></linearGradient>
    <radialGradient id="glow" cx="50%" cy="70%" r="60%"><stop offset="0" stop-color="#a855ff" stop-opacity=".45"/><stop offset="1" stop-color="#a855ff" stop-opacity="0"/></radialGradient>
    <filter id="blur"><feGaussianBlur stdDeviation="10"/></filter>
    <filter id="soft"><feDropShadow dx="0" dy="8" stdDeviation="10" flood-color="#a855ff" flood-opacity=".35"/></filter>
  </defs><ellipse cx="256.0" cy="244" rx="230" ry="46" fill="url(#glow)" filter="url(#blur)"/><path d="M210 170c0-48 44-80 118-80s118 36 118 86-42 82-116 82h-42l-66 50 19-70c-20-18-31-40-31-68z" fill="rgba(18,26,44,.78)" stroke="rgba(148,163,184,.35)" stroke-width="2" filter="url(#soft)"/><path d="M398 198c0-36 34-60 88-60s88 27 88 64-32 60-86 60h-28l-50 36 14-50c-17-15-26-31-26-50z" fill="rgba(48,38,82,.78)" stroke="url(#g)" stroke-width="3"/><circle cx="298" cy="174" r="10" fill="#a78bfa"/><circle cx="338" cy="174" r="10" fill="#a78bfa"/><circle cx="378" cy="174" r="10" fill="#a78bfa"/><circle cx="466" cy="201" r="8" fill="#c4b5fd"/><circle cx="498" cy="201" r="8" fill="#c4b5fd"/><circle cx="530" cy="201" r="8" fill="#c4b5fd"/></svg>