<svg xmlns="http://www.w3.org/2000/svg" viewBox="0 0 1200 630" width="1200" height="630" fill="none">
<defs>
  <linearGradient id="bkGrad" x1="12" y1="12" x2="84" y2="84" gradientUnits="userSpaceOnUse">
    <stop offset="0" stop-color="#a855ff"/>
    <stop offset="1" stop-color="#5b7cff"/>
  </linearGradient>
  <linearGradient id="bkCyanGrad" x1="0" y1="0" x2="96" y2="96" gradientUnits="userSpaceOnUse">
    <stop offset="0" stop-color="#22d3ee"/><stop offset="1" stop-color="#a855ff"/>
  </linearGradient>
  <filter id="softGlow" x="-40%" y="-40%" width="180%" height="180%">
    <feGaussianBlur stdDeviation="2.6" result="blur"/>
    <feMerge><feMergeNode in="blur"/><feMergeNode in="SourceGraphic"/></feMerge>
  </filter>
</defs>
<rect x="90" y="90" width="1020" height="450" rx="52" fill="rgba(8,14,24,.82)" stroke="rgba(168,85,255,.40)" stroke-width="3"/>
<g transform="translate(152 170) scale(1.6)" filter="url(#softGlow)">
  <rect x="20" y="40" width="6" height="16" rx="3" fill="url(#bkGrad)" stroke="none"/>
  <rect x="32" y="28" width="8" height="40" rx="4" fill="url(#bkGrad)" stroke="none"/>
  <rect x="46" y="16" width="8" height="64" rx="4" fill="url(#bkGrad)" stroke="none"/>
  <rect x="60" y="28" width="8" height="40" rx="4" fill="url(#bkGrad)" stroke="none"/>
  <rect x="74" y="40" width="6" height="16" rx="3" fill="url(#bkGrad)" stroke="none"/>
  <rect x="48.8" y="41" width="3.2" height="14" rx="1.6" fill="#07111f" stroke="none" opacity=".88"/>
  <rect x="55" y="39" width="3.2" height="18" rx="1.6" fill="#07111f" stroke="none" opacity=".88"/>
</g>
<text x="318" y="270" font-family="Inter, Arial, sans-serif" font-size="86" font-weight="800" fill="#f7f7fb" letter-spacing="-3">BandKit</text>
<text x="324" y="328" font-family="Inter, Arial, sans-serif" font-size="25" font-weight="600" fill="#a5adba" letter-spacing="6">CONNECT. PERFORM. TOGETHER.</text>
<path d="M150 430 C 280 380, 360 500, 500 430 S 760 380, 1050 450" stroke="url(#bkGrad)" stroke-width="8" stroke-linecap="round" opacity=".76"/>
<text x="324" y="414" font-family="Inter, Arial, sans-serif" font-size="28" font-weight="600" fill="#dbe4f0">Professional music network and workspace.</text>
</svg>