<svg xmlns="http://www.w3.org/2000/svg" viewBox="0 0 768 432" width="768" height="432" fill="none"><defs>
    <linearGradient id="g" x1="0" y1="0" x2="1" y2="1"><stop offset="0" stop-color="#a855ff"/><stop offset="1" stop-color="#5b7cff"/></linearGradient>
    <radialGradient id="glow" cx="50%" cy="70%" r="60%"><stop offset="0" stop-color="#a855ff" stop-opacity=".45"/><stop offset="1" stop-color="#a855ff" stop-opacity="0"/></radialGradient>
    <filter id="blur"><feGaussianBlur stdDeviation="10"/></filter>
    <filter id="soft"><feDropShadow dx="0" dy="8" stdDeviation="10" flood-color="#a855ff" flood-opacity=".35"/></filter>
  </defs><ellipse cx="384.0" cy="356" rx="230" ry="46" fill="url(#glow)" filter="url(#blur)"/><rect x="240" y="100" width="288" height="220" rx="28" fill="rgba(18,26,44,.78)" stroke="rgba(148,163,184,.35)" stroke-width="2" filter="url(#soft)"/><path d="M240 154h288" stroke="#64748b" stroke-width="5"/><path d="M306 84v42M462 84v42" stroke="#94a3b8" stroke-width="10" stroke-linecap="round"/><g transform="translate(336 176) scale(1.0)">
  <rect x="20" y="40" width="6" height="16" rx="3" fill="url(#bkGrad)" stroke="none"/>
  <rect x="32" y="28" width="8" height="40" rx="4" fill="url(#bkGrad)" stroke="none"/>
  <rect x="46" y="16" width="8" height="64" rx="4" fill="url(#bkGrad)" stroke="none"/>
  <rect x="60" y="28" width="8" height="40" rx="4" fill="url(#bkGrad)" stroke="none"/>
  <rect x="74" y="40" width="6" height="16" rx="3" fill="url(#bkGrad)" stroke="none"/>
  <rect x="48.8" y="41" width="3.2" height="14" rx="1.6" fill="#07111f" stroke="none" opacity=".88"/>
  <rect x="55" y="39" width="3.2" height="18" rx="1.6" fill="#07111f" stroke="none" opacity=".88"/>
</g><rect x="300" y="260" width="36" height="26" rx="5" fill="#4f46e5"/><rect x="366" y="260" width="36" height="26" rx="5" fill="#7c3aed"/><rect x="432" y="260" width="36" height="26" rx="5" fill="#312e81"/></svg>