<svg xmlns="http://www.w3.org/2000/svg" width="1400" height="400" viewBox="0 0 1400 400" fill="none">
  <defs>
    <linearGradient id="bg" x1="0" y1="0" x2="1400" y2="400" gradientUnits="userSpaceOnUse">
      <stop offset="0" stop-color="#070b18"/>
      <stop offset="0.45" stop-color="#0a1022"/>
      <stop offset="1" stop-color="#071426"/>
    </linearGradient>
    <linearGradient id="line" x1="230" y1="192" x2="1170" y2="270" gradientUnits="userSpaceOnUse">
      <stop offset="0" stop-color="#7c3cff"/>
      <stop offset="0.5" stop-color="#5b7cff"/>
      <stop offset="1" stop-color="#22d3ee"/>
    </linearGradient>
    <linearGradient id="lineSoft" x1="110" y1="230" x2="1290" y2="270" gradientUnits="userSpaceOnUse">
      <stop offset="0" stop-color="#5b21b6" stop-opacity="0"/>
      <stop offset="0.2" stop-color="#7c3cff" stop-opacity="0.72"/>
      <stop offset="0.56" stop-color="#3b82f6" stop-opacity="0.58"/>
      <stop offset="0.82" stop-color="#22d3ee" stop-opacity="0.7"/>
      <stop offset="1" stop-color="#0ea5e9" stop-opacity="0"/>
    </linearGradient>
    <linearGradient id="head" x1="646" y1="82" x2="754" y2="190" gradientUnits="userSpaceOnUse">
      <stop offset="0" stop-color="#f3e8ff"/>
      <stop offset="0.5" stop-color="#dbeafe"/>
      <stop offset="1" stop-color="#67e8f9"/>
    </linearGradient>
    <radialGradient id="violetGlow" cx="0" cy="0" r="1" gradientUnits="userSpaceOnUse" gradientTransform="translate(300 236) rotate(7) scale(360 116)">
      <stop offset="0" stop-color="#7c3cff" stop-opacity="0.24"/>
      <stop offset="1" stop-color="#7c3cff" stop-opacity="0"/>
    </radialGradient>
    <radialGradient id="cyanGlow" cx="0" cy="0" r="1" gradientUnits="userSpaceOnUse" gradientTransform="translate(1058 247) rotate(-7) scale(340 126)">
      <stop offset="0" stop-color="#22d3ee" stop-opacity="0.22"/>
      <stop offset="1" stop-color="#22d3ee" stop-opacity="0"/>
    </radialGradient>
    <filter id="softBlur" x="-10%" y="-20%" width="120%" height="140%" color-interpolation-filters="sRGB">
      <feGaussianBlur stdDeviation="9"/>
    </filter>
    <filter id="lineGlow" x="-10%" y="-40%" width="120%" height="180%" color-interpolation-filters="sRGB">
      <feDropShadow dx="0" dy="0" stdDeviation="7" flood-color="#7c3cff" flood-opacity="0.34"/>
      <feDropShadow dx="0" dy="0" stdDeviation="9" flood-color="#22d3ee" flood-opacity="0.2"/>
    </filter>
  </defs>

  <rect width="1400" height="400" rx="46" fill="url(#bg)"/>
  <rect x="1.5" y="1.5" width="1397" height="397" rx="44.5" stroke="url(#line)" stroke-opacity="0.42" stroke-width="3"/>
  <rect width="1400" height="400" rx="46" fill="url(#violetGlow)"/>
  <rect width="1400" height="400" rx="46" fill="url(#cyanGlow)"/>

  <path d="M76 246C173 205 267 230 359 270C484 323 584 283 675 226C774 164 884 213 984 260C1105 317 1216 259 1324 229" stroke="#182b76" stroke-opacity="0.34" stroke-width="9" stroke-linecap="round" filter="url(#softBlur)"/>
  <path d="M128 274C240 226 346 265 464 292C566 316 627 248 705 203C809 142 892 218 1017 285C1120 340 1221 283 1304 248" stroke="url(#lineSoft)" stroke-width="6" stroke-linecap="round" opacity="0.58"/>
  <path d="M112 308C244 258 357 314 488 322C586 328 640 258 724 222C832 176 927 270 1043 318C1148 360 1247 291 1335 258" stroke="url(#lineSoft)" stroke-width="4" stroke-linecap="round" opacity="0.38"/>

  <g opacity="0.42">
    <path d="M260 208V284" stroke="#7c3cff" stroke-width="3" stroke-linecap="round"/>
    <path d="M276 178V314" stroke="#7c3cff" stroke-width="3" stroke-linecap="round"/>
    <path d="M292 156V326" stroke="#7c3cff" stroke-width="3" stroke-linecap="round"/>
    <path d="M308 132V335" stroke="#7c3cff" stroke-width="3" stroke-linecap="round"/>
    <path d="M324 166V318" stroke="#7c3cff" stroke-width="3" stroke-linecap="round"/>
    <path d="M340 188V300" stroke="#7c3cff" stroke-width="3" stroke-linecap="round"/>
    <path d="M1044 186V304" stroke="#0ea5e9" stroke-width="3" stroke-linecap="round"/>
    <path d="M1060 152V330" stroke="#0ea5e9" stroke-width="3" stroke-linecap="round"/>
    <path d="M1076 119V342" stroke="#0ea5e9" stroke-width="3" stroke-linecap="round"/>
    <path d="M1092 165V322" stroke="#0ea5e9" stroke-width="3" stroke-linecap="round"/>
    <path d="M1108 191V297" stroke="#0ea5e9" stroke-width="3" stroke-linecap="round"/>
  </g>

  <g opacity="0.7">
    <circle cx="456" cy="126" r="3" fill="#7c3cff"/>
    <circle cx="506" cy="176" r="2.4" fill="#7c3cff"/>
    <circle cx="870" cy="168" r="2.6" fill="#3b82f6"/>
    <circle cx="1132" cy="182" r="2.4" fill="#22d3ee"/>
    <circle cx="1214" cy="306" r="2.2" fill="#0ea5e9"/>
    <circle cx="394" cy="314" r="2" fill="#7c3cff"/>
  </g>

  <g filter="url(#lineGlow)">
    <path d="M240 276C389 183 532 181 676 259C785 318 915 360 1044 291C1084 270 1120 246 1160 230" stroke="url(#line)" stroke-width="12" stroke-linecap="round"/>
    <path d="M518 293C578 230 710 222 806 280" stroke="url(#line)" stroke-width="12" stroke-linecap="round"/>
    <circle cx="700" cy="120" r="52" stroke="url(#head)" stroke-width="13"/>
  </g>
</svg>
